<?xml version="1.0" standalone="no"?><!DOCTYPE svg PUBLIC "-//W3C//DTD SVG 1.1//EN" "http://www.w3.org/Graphics/SVG/1.1/DTD/svg11.dtd"><svg height="1024" node-id="1" sillyvg="true" template-height="1024" template-width="1024" version="1.1" viewBox="0 0 1024 1024" width="1024" xmlns="http://www.w3.org/2000/svg" xmlns:xlink="http://www.w3.org/1999/xlink"><defs node-id="65"><filter height="176" id="椭圆_717" node-id="3" width="176" x="761.396" y="262.268"><feOffset color-interpolation-filters="linearRGB" dx="0" dy="0" in="SourceGraphic" result="result1"></feOffset><feGaussianBlur color-interpolation-filters="linearRGB" in="result1" result="blur" stdDeviation="6 6"></feGaussianBlur><feFlood color-interpolation-filters="linearRGB" flood-color="#012657" flood-opacity="0.161" result="result3"></feFlood><feComposite color-interpolation-filters="linearRGB" in="result3" in2="blur" operator="in" result="result4"></feComposite><feComposite color-interpolation-filters="linearRGB" in="SourceGraphic" in2="result4" operator="over" result="result5"></feComposite></filter><filter height="175.646" id="路径_1169" node-id="9" width="192.29303" x="639.096" y="333.314"><feOffset color-interpolation-filters="linearRGB" dx="0" dy="0" in="SourceGraphic" result="result1"></feOffset><feGaussianBlur color-interpolation-filters="linearRGB" in="result1" result="blur-2" stdDeviation="6 6"></feGaussianBlur><feFlood color-interpolation-filters="linearRGB" flood-color="#012657" flood-opacity="0.161" result="result3"></feFlood><feComposite color-interpolation-filters="linearRGB" in="result3" in2="blur-2" operator="in" result="result4"></feComposite><feComposite color-interpolation-filters="linearRGB" in="SourceGraphic" in2="result4" operator="over" result="result5"></feComposite></filter><clipPath id="clip-安全" node-id="17"><path d="M 0.00 0.00 L 1024.00 0.00 L 1024.00 1024.00 L 0.00 1024.00 Z" fill="#000000" fill-rule="nonzero" node-id="92" stroke="none" target-height="1024" target-width="1024" target-x="0" target-y="0"></path></clipPath><clipPath id="clip-path" node-id="15"><path d="M 398.90 560.70 L 406.40 745.70 L 401.30 749.30 L 392.30 754.30 L 381.80 758.50 L 371.60 761.20 L 360.20 762.80 L 353.70 763.00 L 347.30 762.80 L 340.50 762.00 L 333.10 760.60 L 324.90 758.60 L 310.50 754.00 L 304.30 751.60 L 296.10 747.80 L 288.60 743.80 L 282.00 739.60 L 275.60 734.90 L 269.60 730.10 L 264.10 725.00 L 256.10 717.00 L 248.50 708.40 L 263.70 693.70 L 269.00 688.10 L 274.20 682.00 L 279.30 675.30 L 285.10 665.50 L 304.50 621.20 L 310.30 609.10 L 318.40 593.80 L 322.40 587.10 L 327.30 579.70 L 332.40 573.10 L 342.00 561.80 L 352.30 551.50 Z" fill="#000000" fill-rule="nonzero" id="路径_1404" node-id="16" stroke="none" target-height="211.5" target-width="157.9" target-x="248.5" target-y="551.5"></path></clipPath></defs><g clip-path="url(#clip-安全)" id="安全" node-id="19"><path d="M 0.00 0.00 L 1024.00 0.00 L 1024.00 1024.00 L 0.00 1024.00 Z" fill="#ffffff" fill-rule="nonzero" node-id="100" stroke="none" target-height="1024" target-width="1024" target-x="0" target-y="0"></path><path d="M 104.40 197.30 L 658.40 197.30 L 662.90 197.50 L 667.10 198.10 L 671.20 199.20 L 675.10 200.60 L 678.90 202.50 L 685.70 207.10 L 691.60 212.90 L 694.00 216.20 L 698.00 223.50 L 699.50 227.40 L 700.50 231.50 L 701.20 235.80 L 701.40 240.30 L 701.40 648.30 L 701.20 652.70 L 700.50 657.00 L 699.50 661.10 L 698.00 665.00 L 696.20 668.80 L 691.60 675.60 L 685.70 681.40 L 678.90 686.00 L 675.10 687.90 L 671.20 689.30 L 667.10 690.40 L 662.90 691.00 L 658.40 691.30 L 104.40 691.30 L 99.90 691.00 L 95.70 690.40 L 91.60 689.30 L 87.70 687.90 L 83.90 686.00 L 77.10 681.40 L 71.20 675.60 L 68.70 672.30 L 64.80 665.00 L 63.30 661.10 L 62.30 657.00 L 61.60 652.70 L 61.40 648.30 L 61.40 240.30 L 61.60 235.80 L 62.30 231.50 L 63.30 227.40 L 64.80 223.50 L 66.60 219.70 L 71.20 212.90 L 77.10 207.10 L 83.90 202.50 L 87.70 200.60 L 91.60 199.20 L 95.70 198.10 L 99.90 197.50 L 104.40 197.30 Z" fill="#d9e7ff" fill-rule="nonzero" group-id="1,6" id="矩形_2421" node-id="22" stroke="none" target-height="494" target-width="640" target-x="61.4" target-y="197.3"></path><path d="M 157.40 252.30 L 808.40 252.30 L 812.90 252.50 L 817.10 253.10 L 821.20 254.20 L 825.10 255.60 L 828.90 257.50 L 835.70 262.10 L 841.60 267.90 L 844.00 271.20 L 848.00 278.50 L 849.50 282.40 L 850.50 286.50 L 851.20 290.80 L 851.40 295.30 L 851.40 703.30 L 851.20 707.70 L 850.50 712.00 L 849.50 716.10 L 848.00 720.00 L 846.20 723.80 L 844.00 727.30 L 841.60 730.60 L 835.70 736.40 L 828.90 741.00 L 825.10 742.90 L 821.20 744.30 L 817.10 745.40 L 812.90 746.00 L 808.40 746.30 L 157.40 746.30 L 152.90 746.00 L 148.70 745.40 L 144.60 744.30 L 140.70 742.90 L 136.90 741.00 L 130.10 736.40 L 124.20 730.60 L 121.70 727.30 L 117.80 720.00 L 116.30 716.10 L 115.30 712.00 L 114.60 707.70 L 114.40 703.30 L 114.40 295.30 L 114.60 290.80 L 115.30 286.50 L 116.30 282.40 L 117.80 278.50 L 119.60 274.70 L 124.20 267.90 L 130.10 262.10 L 136.90 257.50 L 140.70 255.60 L 144.60 254.20 L 148.70 253.10 L 152.90 252.50 L 157.40 252.30 Z" fill="#eef4ff" fill-rule="nonzero" group-id="1,7" id="矩形_2422" node-id="23" stroke="none" target-height="494" target-width="737" target-x="114.4" target-y="252.3"></path><path d="M 268.40 667.80 L 268.10 672.70 L 267.40 677.40 L 266.30 681.90 L 264.70 686.20 L 262.60 690.40 L 260.30 694.30 L 257.60 698.00 L 254.50 701.30 L 251.10 704.40 L 247.50 707.10 L 243.60 709.50 L 239.40 711.50 L 235.00 713.10 L 230.50 714.30 L 225.80 715.00 L 220.90 715.30 L 216.00 715.00 L 211.30 714.30 L 206.70 713.10 L 202.40 711.50 L 198.20 709.50 L 194.30 707.10 L 190.70 704.40 L 187.30 701.30 L 184.20 698.00 L 181.50 694.30 L 179.20 690.40 L 177.10 686.20 L 175.50 681.90 L 174.40 677.40 L 173.70 672.70 L 173.40 667.80 L 173.70 662.80 L 174.40 658.10 L 175.50 653.60 L 177.10 649.30 L 179.20 645.10 L 181.50 641.20 L 184.20 637.60 L 187.30 634.20 L 190.70 631.10 L 194.30 628.40 L 198.20 626.00 L 202.40 624.00 L 206.70 622.40 L 211.30 621.20 L 216.00 620.50 L 220.90 620.30 L 225.80 620.50 L 230.50 621.20 L 235.00 622.40 L 239.40 624.00 L 243.60 626.00 L 247.50 628.40 L 251.10 631.10 L 254.50 634.20 L 257.60 637.60 L 260.30 641.20 L 262.60 645.10 L 264.70 649.30 L 266.30 653.60 L 267.40 658.10 L 268.10 662.80 L 268.40 667.80 Z" fill="none" group-id="1,8" node-id="112" stroke="none" target-height="95" target-width="95" target-x="173.4" target-y="620.3"></path><path d="M 266.40 667.80 L 266.10 672.50 L 265.50 677.00 L 264.40 681.30 L 262.80 685.50 L 260.90 689.50 L 258.60 693.20 L 256.00 696.70 L 253.10 699.90 L 249.80 702.90 L 246.30 705.50 L 242.60 707.70 L 238.60 709.70 L 234.50 711.20 L 230.10 712.30 L 225.60 713.00 L 220.90 713.30 L 216.20 713.00 L 211.70 712.30 L 207.30 711.20 L 203.20 709.70 L 199.20 707.70 L 195.40 705.50 L 192.00 702.90 L 188.70 699.90 L 185.80 696.70 L 183.20 693.20 L 180.90 689.50 L 179.00 685.50 L 177.40 681.30 L 176.30 677.00 L 175.60 672.50 L 175.40 667.80 L 175.60 663.00 L 176.30 658.50 L 177.40 654.20 L 179.00 650.00 L 180.90 646.00 L 183.20 642.30 L 185.80 638.80 L 188.70 635.60 L 192.00 632.60 L 195.40 630.00 L 199.20 627.80 L 203.20 625.80 L 207.30 624.30 L 211.70 623.20 L 216.20 622.50 L 220.90 622.30 L 225.60 622.50 L 230.10 623.20 L 234.50 624.30 L 238.60 625.80 L 242.60 627.80 L 246.30 630.00 L 249.80 632.60 L 253.10 635.60 L 256.00 638.80 L 258.60 642.30 L 260.90 646.00 L 262.80 650.00 L 264.40 654.20 L 265.50 658.50 L 266.10 663.00 L 266.40 667.80 Z" fill="none" group-id="1,8" node-id="114" stroke="#fbd635" stroke-linecap="butt" stroke-width="4" target-height="91" target-width="91" target-x="175.4" target-y="622.3"></path><path d="M 258.40 667.80 L 257.60 675.40 L 255.40 682.40 L 253.30 686.70 L 250.60 690.70 L 247.40 694.30 L 243.80 697.40 L 239.80 700.10 L 235.50 702.30 L 228.50 704.50 L 220.90 705.30 L 213.30 704.50 L 206.30 702.30 L 201.90 700.10 L 198.00 697.40 L 194.40 694.30 L 191.20 690.70 L 188.50 686.70 L 186.30 682.40 L 184.20 675.40 L 183.60 671.60 L 183.40 667.80 L 183.60 663.90 L 185.10 656.60 L 186.30 653.20 L 188.50 648.80 L 191.20 644.80 L 194.40 641.20 L 198.00 638.10 L 201.90 635.40 L 206.30 633.20 L 213.30 631.00 L 220.90 630.30 L 228.50 631.00 L 235.50 633.20 L 239.80 635.40 L 243.80 638.10 L 247.40 641.20 L 250.60 644.80 L 253.30 648.80 L 255.40 653.20 L 257.60 660.10 L 258.40 667.80 Z" fill="#fbd635" fill-rule="nonzero" group-id="1,9" id="椭圆_722" node-id="27" stroke="none" target-height="75" target-width="75" target-x="183.4" target-y="630.3"></path><path d="M 173.40 317.30 L 341.40 317.30 L 341.40 332.30 L 173.40 332.30 Z" fill="#d1d7e5" fill-rule="nonzero" group-id="1,10" id="矩形_2423" node-id="28" stroke="none" target-height="15" target-width="168" target-x="173.4" target-y="317.3"></path><path d="M 173.40 346.30 L 499.40 346.30 L 499.40 361.30 L 173.40 361.30 Z" fill="#d1d7e5" fill-rule="nonzero" group-id="1,11" id="矩形_2424" node-id="29" stroke="none" target-height="15" target-width="326" target-x="173.4" target-y="346.3"></path><path d="M 173.40 375.30 L 499.40 375.30 L 499.40 390.30 L 173.40 390.30 Z" fill="#d1d7e5" fill-rule="nonzero" group-id="1,12" id="矩形_2425" node-id="30" stroke="none" target-height="15" target-width="326" target-x="173.4" target-y="375.3"></path><path d="M 593.10 123.30 L 839.50 123.30 L 846.40 123.70 L 855.70 125.30 L 860.80 126.80 L 865.80 128.80 L 872.00 132.60 L 874.70 135.00 L 933.50 192.70 L 948.30 208.30 L 954.70 216.40 L 957.40 220.80 L 959.50 225.30 L 960.90 229.70 L 961.80 234.20 L 962.50 244.30 L 962.60 588.70 L 962.30 592.90 L 961.50 596.70 L 960.20 600.40 L 958.50 603.90 L 956.40 607.10 L 953.80 610.00 L 950.90 612.50 L 947.80 614.70 L 944.30 616.40 L 940.60 617.70 L 936.70 618.50 L 932.60 618.80 L 593.10 618.80 L 588.90 618.50 L 585.10 617.70 L 581.40 616.40 L 577.90 614.70 L 574.70 612.50 L 571.80 610.00 L 569.30 607.10 L 567.20 603.90 L 565.40 600.40 L 564.10 596.70 L 563.30 592.90 L 563.00 588.70 L 563.00 153.40 L 563.30 149.40 L 564.10 145.60 L 565.30 141.90 L 567.00 138.40 L 569.20 135.10 L 571.80 132.10 L 574.80 129.50 L 578.10 127.40 L 581.60 125.60 L 585.30 124.40 L 589.10 123.60 L 593.10 123.30 Z" fill="#307eff" fill-rule="nonzero" group-id="2,13" id="路径_1167" node-id="32" stroke="none" target-height="495.5" target-width="399.59998" target-x="563" target-y="123.3"></path><path d="M 633.40 234.30 L 795.40 234.30 L 795.40 396.30 L 633.40 396.30 Z" fill="#ffffff" fill-rule="nonzero" group-id="2,14" id="矩形_2415" node-id="33" stroke="none" target-height="161.99998" target-width="162" target-x="633.4" target-y="234.3"></path><path d="M 919.40 350.30 L 919.20 356.10 L 918.50 361.70 L 917.40 367.10 L 915.80 372.40 L 913.90 377.60 L 911.60 382.50 L 908.90 387.10 L 905.90 391.60 L 902.50 395.80 L 898.90 399.80 L 895.00 403.40 L 890.70 406.80 L 886.30 409.80 L 881.60 412.40 L 876.70 414.80 L 871.50 416.70 L 866.30 418.20 L 860.80 419.30 L 855.20 420.00 L 849.40 420.30 L 843.60 420.00 L 838.00 419.30 L 832.50 418.20 L 827.30 416.70 L 822.10 414.80 L 817.20 412.40 L 812.50 409.80 L 808.10 406.80 L 803.80 403.40 L 799.90 399.80 L 796.30 395.80 L 792.90 391.60 L 789.90 387.10 L 787.20 382.50 L 784.90 377.60 L 783.00 372.40 L 781.40 367.10 L 780.30 361.70 L 779.60 356.10 L 779.40 350.30 L 779.60 344.50 L 780.30 338.80 L 781.40 333.40 L 783.00 328.10 L 784.90 323.00 L 787.20 318.10 L 789.90 313.40 L 792.90 308.90 L 796.30 304.70 L 799.90 300.80 L 803.80 297.10 L 808.10 293.80 L 812.50 290.80 L 817.20 288.10 L 822.10 285.80 L 827.30 283.80 L 832.50 282.30 L 838.00 281.20 L 843.60 280.50 L 849.40 280.30 L 855.20 280.50 L 860.80 281.20 L 866.30 282.30 L 871.50 283.80 L 876.70 285.80 L 881.60 288.10 L 886.30 290.80 L 890.70 293.80 L 895.00 297.10 L 898.90 300.80 L 902.50 304.70 L 905.90 308.90 L 908.90 313.40 L 911.60 318.10 L 913.90 323.00 L 915.80 328.10 L 917.40 333.40 L 918.50 338.80 L 919.20 344.50 L 919.40 350.30 Z" fill="#b1cdff" fill-rule="nonzero" filter="url(#椭圆_717)" group-id="2,15,23" id="椭圆_717-2" node-id="35" stroke="none" target-height="140" target-width="140" target-x="779.4" target-y="280.3"></path><path d="M 734.30 351.30 L 657.10 491.00 L 813.40 491.00 Z" fill="#b1cdff" fill-rule="nonzero" filter="url(#路径_1169)" group-id="2,16,24" id="路径_1169-2" node-id="37" stroke="none" target-height="139.70001" target-width="156.30005" target-x="657.1" target-y="351.3"></path><path d="M 566.00 445.40 L 556.20 451.50 L 543.80 457.60 L 536.10 460.70 L 527.80 463.50 L 518.60 466.10 L 505.60 468.60 L 498.70 469.50 L 491.70 469.90 L 484.50 469.90 L 477.20 469.40 L 477.50 493.70 L 477.20 505.10 L 476.60 517.00 L 475.30 530.30 L 474.00 539.30 L 472.30 548.70 L 468.40 566.30 L 467.20 574.00 L 466.40 581.50 L 466.20 589.00 L 466.60 596.20 L 467.60 603.20 L 468.80 608.30 L 470.30 613.10 L 472.20 617.80 L 474.50 622.20 L 477.20 626.40 L 480.30 630.30 L 483.90 634.00 L 488.00 637.40 L 492.40 640.30 L 497.30 643.00 L 502.80 645.40 L 524.10 651.90 L 545.90 659.20 L 559.40 664.60 L 566.00 667.80 L 577.60 662.30 L 589.70 657.10 L 603.80 651.80 L 611.10 649.40 L 622.90 646.10 L 627.60 644.40 L 632.40 642.30 L 636.90 639.70 L 641.30 636.70 L 645.60 633.10 L 648.60 630.20 L 653.90 623.30 L 658.20 615.10 L 659.90 610.60 L 661.40 605.50 L 662.50 600.00 L 663.10 594.50 L 663.40 588.50 L 663.20 581.80 L 661.00 562.90 L 654.10 520.40 L 652.40 505.50 L 651.50 489.10 L 652.00 469.40 L 641.90 469.20 L 627.70 468.00 L 611.20 465.40 L 602.70 463.50 L 594.20 461.10 L 588.70 459.20 L 578.50 454.60 L 573.80 451.80 L 569.60 448.70 L 566.00 445.40 Z" fill="#2ed79c" fill-rule="nonzero" group-id="3" id="路径_1171" node-id="39" stroke="none" target-height="222.4" target-width="197.20001" target-x="466.2" target-y="445.4"></path><path d="M 542.40 539.30 L 531.40 539.30 L 531.40 518.30 L 531.60 514.40 L 532.30 510.80 L 533.30 507.40 L 534.70 504.00 L 536.50 500.90 L 541.00 495.40 L 543.80 493.00 L 546.70 490.90 L 549.90 489.20 L 553.40 487.90 L 557.00 486.90 L 560.80 486.40 L 564.50 486.30 L 568.10 486.60 L 571.70 487.30 L 575.10 488.50 L 581.40 491.80 L 584.30 494.00 L 586.90 496.50 L 589.20 499.30 L 591.20 502.40 L 592.90 505.80 L 594.30 509.80 L 595.10 514.00 L 595.40 518.30 L 595.40 539.30 L 584.40 539.30 L 584.20 514.30 L 583.60 511.60 L 581.50 506.70 L 579.40 503.70 L 576.90 501.20 L 574.00 499.10 L 569.00 497.00 L 563.40 496.30 L 560.50 496.50 L 555.20 497.90 L 552.80 499.10 L 549.80 501.20 L 547.40 503.70 L 545.30 506.70 L 543.20 511.60 L 542.40 517.30 L 542.40 539.30 Z" fill="#ffffff" fill-rule="nonzero" group-id="3,17" id="减去_4" node-id="40" stroke="none" target-height="53" target-width="64" target-x="531.4" target-y="486.3"></path><path d="M 520.40 526.30 L 606.40 526.30 L 606.40 576.30 L 606.20 580.70 L 605.50 585.00 L 604.50 589.10 L 603.00 593.00 L 601.20 596.80 L 596.60 603.60 L 590.70 609.40 L 587.40 611.90 L 580.10 615.90 L 576.20 617.30 L 572.10 618.40 L 567.90 619.00 L 563.40 619.30 L 558.90 619.00 L 554.70 618.40 L 550.60 617.30 L 546.70 615.90 L 539.30 611.90 L 536.10 609.40 L 530.20 603.60 L 525.60 596.80 L 523.80 593.00 L 522.30 589.10 L 521.30 585.00 L 520.60 580.70 L 520.40 576.30 L 520.40 526.30 Z" fill="#ffffff" fill-rule="nonzero" group-id="3,18" id="矩形_2426" node-id="41" stroke="none" target-height="93" target-width="86" target-x="520.4" target-y="526.3"></path><path d="M 550.40 586.00 L 556.40 563.60 L 554.30 561.90 L 552.80 559.80 L 551.60 557.50 L 551.00 555.00 L 550.90 552.40 L 551.40 549.70 L 552.50 547.20 L 553.90 545.10 L 555.80 543.30 L 558.10 541.90 L 560.50 541.10 L 563.20 540.80 L 565.90 541.00 L 568.40 541.80 L 570.60 543.10 L 572.60 544.80 L 574.10 546.90 L 575.30 549.30 L 575.80 552.00 L 575.80 554.60 L 575.30 557.10 L 574.20 559.50 L 572.70 561.60 L 570.70 563.40 L 577.50 586.00 Z" fill="#d3d4d7" fill-rule="nonzero" group-id="3,19" id="联合_303" node-id="42" stroke="none" target-height="45.200012" target-width="27.099976" target-x="550.4" target-y="540.8"></path><path d="M 455.40 859.20 L 455.10 861.80 L 454.30 864.30 L 452.90 866.90 L 450.90 869.60 L 448.10 872.30 L 444.50 875.10 L 440.00 878.00 L 434.50 880.80 L 427.90 883.70 L 414.20 888.40 L 397.00 892.70 L 385.20 895.00 L 372.10 896.90 L 357.90 898.60 L 343.70 899.70 L 328.70 900.40 L 312.90 900.70 L 297.10 900.40 L 282.10 899.70 L 267.80 898.60 L 253.60 896.90 L 240.60 895.00 L 228.70 892.70 L 211.60 888.40 L 197.90 883.70 L 191.30 880.80 L 185.80 878.00 L 181.30 875.10 L 177.60 872.30 L 174.90 869.60 L 172.90 866.90 L 171.50 864.30 L 170.70 861.80 L 170.40 859.20 L 170.70 856.60 L 171.50 854.00 L 172.90 851.40 L 174.90 848.80 L 177.60 846.10 L 181.30 843.30 L 185.80 840.40 L 191.30 837.50 L 197.90 834.70 L 211.60 830.00 L 228.70 825.70 L 240.60 823.40 L 253.60 821.40 L 267.80 819.80 L 282.10 818.70 L 297.10 817.90 L 312.90 817.70 L 328.70 817.90 L 343.70 818.70 L 357.90 819.80 L 372.10 821.40 L 385.20 823.40 L 397.00 825.70 L 414.20 830.00 L 427.90 834.70 L 434.50 837.50 L 440.00 840.40 L 444.50 843.30 L 448.10 846.10 L 450.90 848.80 L 452.90 851.40 L 454.30 854.00 L 455.10 856.60 L 455.40 859.20 Z" fill="#e1ebfa" fill-rule="nonzero" group-id="4" id="椭圆_798" node-id="43" stroke="none" target-height="83" target-width="285" target-x="170.4" target-y="817.7"></path><path d="M 396.40 749.60 L 381.20 851.20 L 360.90 851.40 L 366.70 757.90 Z" fill="#feaba1" fill-rule="nonzero" group-id="5,20,25" id="路径_1405" node-id="46" stroke="none" target-height="101.80005" target-width="35.5" target-x="360.9" target-y="749.6"></path><path d="M 382.60 845.80 L 379.80 847.80 L 377.40 848.90 L 374.60 849.70 L 370.80 850.10 L 368.30 850.00 L 361.80 848.60 L 361.40 848.80 L 360.20 850.30 L 357.60 855.10 L 355.10 861.30 L 354.30 864.60 L 354.00 867.40 L 354.50 872.40 L 355.20 874.10 L 357.40 876.40 L 361.10 877.80 L 409.10 881.60 L 414.10 881.80 L 416.30 880.80 L 417.20 879.80 L 418.00 877.90 L 418.50 875.50 L 418.40 873.00 L 418.00 870.40 L 417.10 868.00 L 415.90 865.90 L 414.40 864.50 L 411.30 862.40 L 400.80 859.10 L 393.60 854.30 L 382.60 845.80 Z" fill="#1d2786" fill-rule="nonzero" group-id="5,20,26" id="路径_1406" node-id="47" stroke="none" target-height="36" target-width="64.5" target-x="354" target-y="845.8"></path><path d="M 312.70 753.10 L 295.20 767.60 L 284.80 776.70 L 274.10 786.60 L 263.40 797.40 L 253.10 808.60 L 243.10 820.20 L 231.90 802.30 L 285.20 734.90 Z" fill="#feaba1" fill-rule="nonzero" group-id="5,20,27" id="路径_1407" node-id="48" stroke="none" target-height="85.29999" target-width="80.80002" target-x="231.9" target-y="734.9"></path><path d="M 398.90 560.70 L 406.40 745.70 L 401.30 749.30 L 392.30 754.30 L 381.80 758.50 L 371.60 761.20 L 360.20 762.80 L 353.70 763.00 L 347.30 762.80 L 340.50 762.00 L 333.10 760.60 L 324.90 758.60 L 310.50 754.00 L 304.30 751.60 L 296.10 747.80 L 288.60 743.80 L 282.00 739.60 L 275.60 734.90 L 269.60 730.10 L 264.10 725.00 L 256.10 717.00 L 248.50 708.40 L 263.70 693.70 L 269.00 688.10 L 274.20 682.00 L 279.30 675.30 L 285.10 665.50 L 304.50 621.20 L 310.30 609.10 L 318.40 593.80 L 322.40 587.10 L 327.30 579.70 L 332.40 573.10 L 342.00 561.80 L 352.30 551.50 Z" fill="#0f54d5" fill-rule="nonzero" group-id="5,20,28" id="路径_1401" node-id="49" stroke="none" target-height="211.5" target-width="157.9" target-x="248.5" target-y="551.5"></path><g clip-path="url(#clip-path)" group-id="5,20,29" id="蒙版组_16" node-id="50"><path d="M 368.30 551.50 L 358.80 564.80 L 350.60 576.90 L 342.20 590.70 L 338.20 597.90 L 334.90 604.80 L 329.00 620.20 L 314.60 666.80 L 312.60 672.10 L 301.60 691.90 L 294.40 703.40 L 286.00 714.90 L 281.40 720.10 L 276.80 724.60 L 273.60 727.20 L 270.40 729.20 L 267.30 730.80 L 264.10 731.80 L 261.30 732.30 L 258.80 732.20 L 254.30 730.90 L 252.40 729.80 L 249.90 727.70 L 247.80 725.20 L 246.10 722.40 L 244.90 719.90 L 242.80 713.70 L 242.80 702.40 L 243.20 698.10 L 243.70 696.60 L 244.70 695.70 L 246.30 692.70 L 250.20 683.50 L 270.40 631.30 L 278.70 617.50 L 307.10 568.20 L 348.00 531.20 Z" fill="#0b52ba" fill-rule="nonzero" group-id="5,20,29,39" id="路径_1402" node-id="51" stroke="none" target-height="201.09998" target-width="125.499985" target-x="242.8" target-y="531.2"></path><path d="M 409.90 716.50 L 403.10 720.10 L 391.70 724.90 L 384.20 727.30 L 373.40 729.90 L 361.30 731.50 L 355.00 731.70 L 348.40 731.50 L 342.90 730.80 L 337.20 729.60 L 325.10 725.90 L 313.00 720.80 L 304.10 716.30 L 295.60 711.60 L 280.70 702.10 L 269.80 693.70 L 266.00 690.10 L 263.60 687.10 L 262.60 686.60 L 261.30 686.60 L 259.10 687.30 L 253.50 690.60 L 245.10 697.70 L 239.60 703.40 L 242.10 725.80 L 250.90 733.50 L 286.50 762.40 L 334.50 771.30 L 379.00 773.40 L 432.70 755.70 Z" fill="#073fbe" fill-rule="nonzero" group-id="5,20,29,40" id="路径_1403" node-id="52" stroke="none" target-height="86.80005" target-width="193.1" target-x="239.6" target-y="686.6"></path></g><path d="M 250.20 815.30 L 245.10 814.10 L 243.00 813.20 L 240.90 812.00 L 238.90 810.30 L 237.30 808.20 L 234.60 803.30 L 233.40 800.30 L 227.90 805.20 L 221.00 812.10 L 217.90 816.50 L 217.50 818.00 L 217.40 819.60 L 218.20 829.70 L 219.70 838.00 L 221.90 845.80 L 223.40 849.20 L 225.00 851.70 L 230.20 857.00 L 233.40 859.30 L 236.90 861.20 L 242.10 862.90 L 247.90 863.30 L 250.90 862.90 L 254.30 862.00 L 256.50 860.90 L 257.90 859.80 L 258.90 858.40 L 259.80 855.00 L 259.40 850.10 L 258.40 847.00 L 255.80 841.00 L 251.10 832.40 L 250.40 825.90 L 250.20 815.30 Z" fill="#1d2786" fill-rule="nonzero" group-id="5,20,30" id="路径_1408" node-id="53" stroke="none" target-height="63" target-width="42.399994" target-x="217.4" target-y="800.3"></path><path d="M 368.00 398.90 L 371.90 398.00 L 377.80 397.70 L 383.70 398.70 L 388.40 400.90 L 390.60 402.50 L 392.70 404.60 L 394.80 407.30 L 400.40 417.50 L 402.70 422.90 L 405.80 431.10 L 408.20 439.20 L 410.20 447.20 L 412.40 458.80 L 412.90 464.00 L 413.00 474.90 L 412.30 485.60 L 410.90 494.60 L 410.00 498.20 L 409.00 500.40 L 404.60 505.20 L 384.30 524.00 L 348.90 555.40 L 345.60 557.40 L 343.20 558.20 L 340.30 558.60 L 336.00 558.40 L 333.50 557.80 L 328.30 555.50 L 325.30 553.50 L 321.70 550.50 L 316.40 544.90 L 312.90 539.20 L 311.70 536.10 L 310.90 533.00 L 310.60 529.80 L 310.60 525.50 L 311.30 520.80 L 312.70 515.70 L 314.10 512.00 L 317.80 504.90 L 330.70 486.10 L 332.40 483.10 L 334.50 477.50 L 335.10 474.00 L 334.90 465.10 L 332.80 450.60 L 329.70 435.90 L 329.30 432.90 L 329.30 428.80 L 329.90 424.60 L 332.10 416.70 L 335.30 410.60 L 337.30 407.80 L 339.70 405.20 L 342.50 402.90 L 345.60 401.00 L 348.50 399.60 L 351.40 398.60 L 355.90 397.80 L 359.70 397.70 L 363.20 397.90 L 368.00 398.90 Z" fill="#0441bb" fill-rule="nonzero" group-id="5,21,31" id="路径_1393" node-id="55" stroke="none" target-height="160.89996" target-width="102.399994" target-x="310.6" target-y="397.7"></path><path d="M 385.60 457.60 L 385.60 470.00 L 390.50 472.90 L 390.50 486.30 L 388.60 495.30 L 372.80 489.20 L 369.00 471.80 L 369.00 446.90 Z" fill="#ef8d91" fill-rule="nonzero" group-id="5,21,32" id="路径_1395" node-id="56" stroke="none" target-height="48.399994" target-width="21.5" target-x="369" target-y="446.9"></path><path d="M 390.80 417.30 L 387.10 418.30 L 383.90 418.50 L 380.30 418.30 L 375.30 417.30 L 375.40 419.30 L 375.20 421.80 L 374.40 424.40 L 373.10 427.10 L 371.30 429.50 L 368.90 431.70 L 367.10 432.80 L 365.00 433.70 L 359.90 434.60 L 358.90 435.20 L 357.70 436.50 L 356.90 438.20 L 356.60 440.10 L 356.70 442.00 L 357.30 443.70 L 358.30 445.10 L 360.20 446.30 L 362.30 447.00 L 364.50 447.30 L 368.00 447.20 L 371.50 451.90 L 373.20 453.80 L 377.60 457.10 L 380.10 458.20 L 383.70 459.10 L 389.60 459.50 L 393.80 458.40 L 395.60 457.30 L 397.10 455.60 L 398.40 453.20 L 399.30 448.70 L 399.30 445.60 L 398.70 440.90 L 396.20 430.50 L 394.50 425.60 L 390.80 417.30 Z" fill="#fda9ac" fill-rule="nonzero" group-id="5,21,33" id="路径_1394" node-id="57" stroke="none" target-height="42.200012" target-width="42.69998" target-x="356.6" target-y="417.3"></path><path d="M 474.50 537.10 L 479.00 535.10 L 485.00 531.40 L 488.10 528.80 L 491.50 524.70 L 492.90 522.30 L 494.80 517.50 L 496.20 511.80 L 496.00 508.50 L 495.20 506.50 L 493.90 504.70 L 492.80 503.80 L 491.60 503.30 L 490.10 503.20 L 488.00 503.60 L 485.80 504.50 L 484.00 505.80 L 482.80 507.10 L 476.60 517.90 L 473.90 520.80 L 466.70 526.40 Z" fill="#f6afa1" fill-rule="nonzero" group-id="5,22,34" id="路径_1397" node-id="59" stroke="none" target-height="33.899963" target-width="29.5" target-x="466.7" target-y="503.2"></path><path d="M 408.70 514.60 L 412.40 520.00 L 417.40 524.50 L 420.60 526.50 L 424.60 528.20 L 430.60 529.60 L 434.30 529.80 L 441.30 529.50 L 448.20 528.80 L 455.00 527.70 L 461.70 526.10 L 471.50 523.30 L 474.40 523.20 L 475.00 523.60 L 475.10 524.40 L 474.60 528.80 L 475.80 533.30 L 475.60 537.60 L 467.50 541.40 L 454.50 546.40 L 444.80 549.20 L 440.20 550.10 L 435.80 550.50 L 432.00 550.20 L 427.70 549.20 L 423.10 547.60 L 418.70 545.50 L 410.30 540.70 L 399.60 533.10 Z" fill="#fb7600" fill-rule="nonzero" group-id="5,22,35" id="路径_1396" node-id="60" stroke="none" target-height="35.900024" target-width="76.19998" target-x="399.6" target-y="514.6"></path><path d="M 389.50 470.20 L 388.20 491.10 L 367.30 472.40 L 350.30 472.60 L 346.60 473.20 L 345.30 473.80 L 342.90 476.00 L 342.00 477.60 L 340.70 481.90 L 340.40 484.40 L 340.90 490.80 L 351.00 550.40 L 352.40 552.90 L 354.00 554.70 L 358.50 558.20 L 364.10 560.90 L 367.30 561.80 L 375.90 563.20 L 384.70 563.60 L 390.60 563.40 L 395.60 562.80 L 400.40 561.60 L 400.40 537.70 L 400.80 536.00 L 402.00 533.70 L 407.20 524.40 L 408.80 520.10 L 410.10 513.70 L 410.30 509.80 L 410.00 504.30 L 408.50 496.20 L 406.20 490.50 L 402.60 484.10 L 398.00 473.80 L 397.00 472.00 L 396.10 471.10 L 395.00 470.60 L 389.50 470.20 Z" fill="#fea90a" fill-rule="nonzero" group-id="5,22,36" id="路径_1398" node-id="61" stroke="none" target-height="93.39996" target-width="69.899994" target-x="340.4" target-y="470.2"></path><path d="M 459.30 525.70 L 464.90 521.80 L 470.00 517.40 L 474.90 512.00 L 476.90 509.10 L 478.30 506.10 L 479.90 500.90 L 480.80 496.40 L 480.90 491.00 L 480.00 487.10 L 479.20 485.90 L 478.20 485.20 L 476.00 485.00 L 474.40 485.30 L 472.00 486.30 L 469.20 487.90 L 466.60 489.90 L 464.00 492.60 L 461.80 495.60 L 460.00 499.10 L 453.60 515.80 Z" fill="#f6afa1" fill-rule="nonzero" group-id="5,22,37" id="路径_1400" node-id="62" stroke="none" target-height="40.700012" target-width="27.299988" target-x="453.6" target-y="485"></path><path d="M 356.30 478.00 L 354.20 475.90 L 352.80 475.10 L 351.20 474.60 L 349.50 474.50 L 346.70 475.50 L 344.50 478.00 L 343.70 479.70 L 342.80 483.80 L 343.30 490.80 L 344.90 497.60 L 346.50 502.80 L 348.70 507.30 L 353.00 514.80 L 369.80 541.00 L 375.80 549.00 L 377.90 551.00 L 380.20 552.70 L 382.80 553.90 L 386.90 554.60 L 389.40 554.60 L 393.50 554.20 L 402.80 552.00 L 419.70 545.90 L 457.80 530.10 L 459.50 528.80 L 460.20 526.20 L 459.70 522.40 L 457.80 517.50 L 456.80 516.10 L 455.50 515.10 L 453.90 514.40 L 450.60 514.10 L 412.60 527.60 L 397.60 532.60 L 392.60 533.50 L 390.20 533.50 L 388.10 533.00 L 385.70 531.40 L 384.60 530.10 L 362.40 488.70 L 356.30 478.00 Z" fill="#fe8a05" fill-rule="nonzero" group-id="5,22,38" id="路径_1399" node-id="63" stroke="none" target-height="80.099976" target-width="117.400024" target-x="342.8" target-y="474.5"></path></g></svg>